<svg xmlns="http://www.w3.org/2000/svg" xmlns:xlink="http://www.w3.org/1999/xlink" width="729" height="929" viewBox="0 0 729 929"><defs><style>.a,.af{fill:#fff;}.b{fill:none;}.c,.i,.k{fill:#f6921e;}.c,.d{clip-rule:evenodd;}.d,.m,.o{fill:#37b34a;}.e{clip-path:url(#a);}.f{clip-path:url(#b);}.g{opacity:0.4;}.h{fill:#f2f2f2;}.h,.i,.k,.m,.o{fill-rule:evenodd;}.j{clip-path:url(#c);}.k{opacity:0.47;}.k,.o{mix-blend-mode:hard-light;}.k,.l,.o{isolation:isolate;}.l{mix-blend-mode:multiply;}.n{clip-path:url(#d);}.o{opacity:0.14;}.p{fill:#ebebeb;}.q{fill:#f5f5f5;}.r{opacity:0.02;}.s{fill:#16a155;}.t{opacity:0.15;}.u{fill:#f8be14;}.v{fill:#b3941a;}.w{fill:#f28f8f;}.x{fill:#37474f;}.y{fill:#ffd110;}.ae,.z{opacity:0.3;}.aa{opacity:0.1;}.ab{fill:#455a64;}.ac{fill:#ffa8a7;}.ad{fill:#263238;}.af{opacity:0.6;}.ag{fill:#b16668;}.ah,.ai{fill:#33a457;}.ai{opacity:0.2;}.aj{fill:#f4cf14;}.ak{fill:#f78014;}.al{fill:#fca120;}.am{fill:#6368f6;}</style><clipPath id="a"><rect class="a" width="729" height="929" transform="translate(1191)"/></clipPath><clipPath id="b"><rect class="b" width="841.535" height="582.85"/></clipPath><clipPath id="c"><path class="c" d="M-627.141,212.16c345.1,59.094,685.691-347.13,985.106,32.947l10.653-37.182C-2.906-256.638-300.38,47.934-587.706,74.531Z" transform="translate(627.141 48)"/></clipPath><clipPath id="d"><path class="d" d="M358.993,57.539C12.808-1.55-329.931,409.492-629.514,26.011L-640.292,63.6C-268.541,532.309,30.693,224.05,319.1,196.666Z" transform="translate(640.292 -26.011)"/></clipPath></defs><g class="e" transform="translate(-1191)"><g transform="translate(24)"><g transform="matrix(0.799, -0.602, 0.602, 0.799, 1851.363, 20.503)"><g class="f" transform="translate(-577 -75)"><g class="g" transform="translate(-108.699 66.401)"><path class="h" d="M-521.715,72.687-104.4-41,223.625,79.5l68.7,61.482-26.356,80.031L-257.68,396.334l-295.012-137.3-48.677-80.265Z" transform="translate(668.217 58.215)"/><g transform="translate(22.586)"><path class="i" d="M-627.141,212.16c345.1,59.094,685.691-347.13,985.106,32.947l10.653-37.182C-2.906-256.638-300.38,47.934-587.706,74.531Z" transform="translate(627.141 48)"/><g class="j"><path class="k" d="M-626.369,168.5c343.145,72.369,695.64-320.489,983.558,70.918l11.756-36.749C11.477-275.961-294.9,16.964-582.855,32.465Z" transform="translate(627.695 15.343)"/></g></g><g class="l" transform="translate(0 182.014)"><path class="m" d="M358.993,57.539C12.808-1.55-329.931,409.492-629.514,26.011L-640.292,63.6C-268.541,532.309,30.693,224.05,319.1,196.666Z" transform="translate(640.292 -26.011)"/><g class="n"><path class="o" d="M365.864,73.917C19.679,14.826-323.06,425.868-622.642,42.387l-10.779,37.588C-261.67,548.687,37.564,240.426,325.968,213.042Z" transform="translate(645.221 -2.114)"/></g></g></g></g></g><g transform="translate(1129.1 151.719)"><g transform="translate(37.775 337.076)"><ellipse class="p" cx="362.06" cy="209.036" rx="362.06" ry="209.036"/><path class="q" d="M653.036,276.235c64.211,37.072,99.256,84.607,105.146,133.1L371.54,632.563c-83.992-3.4-166.324-23.633-230.535-60.707C66.934,529.093,31.692,472.409,35.226,416.39L383.76,215.164C480.787,213.124,578.966,233.47,653.036,276.235Z" transform="translate(-34.96 -215.01)"/></g><g transform="translate(200.22 373.122)"><path class="r" d="M552.633,505.838,146.85,271.9c-15.8-9.107-18.019-22.6-4.965-30.135s36.434-6.256,52.224,2.861l405.472,234.1c15.79,9.117,18.083,22.573,5.122,30.055S568.43,514.944,552.633,505.838Z" transform="translate(-133.382 -236.853)"/><path class="p" d="M187.044,436.327c.652-7.494,7.007-13.093,13.179-17.4,41.5-28.941,118.723-42.414,132.387-43.847s35.428-1.424,46.859,2.968c4.054,1.558,9.165,6.19,11.211,10.02,3.524,6.589,3.369,15.68-2.01,20.868-9.907,9.552-27.5,13.606-40.9,16.756s-27.172,4.7-40.364,8.621c-17.949,5.335-34.345,14.915-52,21.168s-37.932,8.9-54.614.4C193.252,452.038,186.31,444.76,187.044,436.327Z" transform="translate(-98.5 -147.463)"/></g><g transform="translate(545.227 36.317)"><g transform="translate(0)"><path class="p" d="M404.967,41.195l15.35,8.862a18.584,18.584,0,0,1-.129-2.034V43.578c0-7.915,5.554-11.122,12.408-7.166a24.014,24.014,0,0,1,7.4,7.113c1.121-9.95,8.928-13.658,18.412-8.182,10.252,5.919,18.563,20.315,18.563,32.153V74.15a17.512,17.512,0,0,1-1.571,7.707l12.75,7.36a15.215,15.215,0,0,1,6.883,11.923c0,4.389-3.082,6.169-6.883,3.973L404.967,57.091a15.217,15.217,0,0,1-6.883-11.923C398.084,40.779,401.166,39,404.967,41.195Z" transform="translate(-306.155 -32.811)"/><path class="p" d="M347.587,59.923l11.584,6.688a13.887,13.887,0,0,1-.1-1.533V61.722c0-5.972,4.193-8.394,9.366-5.408a18.146,18.146,0,0,1,5.581,5.368c.847-7.511,6.74-10.307,13.9-6.175,7.738,4.467,14.011,15.331,14.011,24.266V84.8a13.207,13.207,0,0,1-1.187,5.817l9.623,5.554a11.484,11.484,0,0,1,5.195,9c0,3.313-2.326,4.657-5.195,3L347.587,71.92a11.481,11.481,0,0,1-5.195-9C342.392,59.609,344.718,58.267,347.587,59.923Z" transform="translate(-342.392 -19.286)"/></g></g><g transform="translate(645.47 494.589)"><g transform="translate(7.426)"><path class="s" d="M409.723,407.866s-5.226-25.537.8-48.642,18.963-40.517,34.263-46.876S477.473,316.3,463.9,331.7s-40.123,35.253-41.767,76.839Z" transform="translate(-407.62 -310.439)"/><path class="t" d="M409.723,407.866s-5.226-25.537.8-48.642,18.963-40.517,34.263-46.876S477.473,316.3,463.9,331.7s-40.123,35.253-41.767,76.839Z" transform="translate(-407.62 -310.439)"/><g transform="translate(3.622 6.937)"><path class="a" d="M410.815,397.237a.745.745,0,0,1-.182.005.882.882,0,0,1-.817-.943c3.27-46.215,29.266-73.539,42.556-81.53a.882.882,0,1,1,.91,1.512c-13.017,7.827-38.485,34.652-41.706,80.143A.882.882,0,0,1,410.815,397.237Z" transform="translate(-409.814 -314.642)"/></g></g><g transform="translate(0 48.798)"><path class="s" d="M488.847,348.168c1.684,5.152-1.976,8.739-5.437,11.637-2.658,2.22-5.573,4.647-6.3,8.047-1.469,6.863,6.66,13.2,4.9,19.995-.741,2.847-3.14,5-5.734,6.39a72.318,72.318,0,0,1-6.74,2.875,29.136,29.136,0,0,1-3.384.815c-3.336.573-6.84,1.545-9.229,4.123-3.754,4.072-3.28,10.328-4.617,15.706-.015.064-.031.129-.048.193-2.882,11.167-16.315,15.752-25.709,9.061L407.573,413.5c-7.514-10.109-5.614-28.231,6.439-34.149,2.562-1.258,5.484-1.987,7.522-3.985,2.469-2.418,3.078-6.134,3.229-9.587s0-7.045,1.4-10.2c1.956-4.394,6.647-7.075,11.386-7.893,5.548-.959,11.1,1.291,16.36-.626s10.137-5.016,15.587-6.377c5.977-1.492,12.849-.692,17.309,4.133A9.23,9.23,0,0,1,488.847,348.168Z" transform="translate(-403.121 -340.001)"/><path class="a" d="M426.169,375.736a.782.782,0,0,1,.236-.322c14.112-19.983,36.221-29.466,43.691-31.13a.783.783,0,0,1,.342,1.528c-7.083,1.578-27.614,10.34-41.438,28.675,19.62-6.292,34.255,2.9,34.406,3a.783.783,0,1,1-.85,1.316c-.15-.1-15.226-9.574-35.148-2.138A65.544,65.544,0,0,0,415.657,417a.781.781,0,0,1-.695.8c-.021,0-.043,0-.064,0a.783.783,0,0,1-.806-.759A66.979,66.979,0,0,1,426.169,375.736Z" transform="translate(-396.006 -337.226)"/></g></g><g transform="translate(204.372 27.423)"><path class="u" d="M135.9,388.465l0-295.92A26.414,26.414,0,0,1,149.1,69.672l67.05-38.711a26.412,26.412,0,0,1,26.411,0L524.177,193.551a26.424,26.424,0,0,1,9.666,9.668l67.05,116.134a26.4,26.4,0,0,1,3.539,13.205V628.477c0,3.9-2.578,7.806-7.735,10.782-10.315,5.956-27.036,5.956-37.351,0-5.157-2.976-7.735-6.878-7.735-10.782h0V339.635L491.637,235.759,229.359,84.33,188.72,107.794l0,280.673h0c.007,3.909-2.57,7.818-7.735,10.8-10.313,5.956-27.036,5.956-37.35,0-5.167-2.981-7.743-6.892-7.735-10.8Z" transform="translate(-135.897 -27.423)"/><path class="v" d="M389.329,222.472s8.415-11.558,33.606-13.94c0,0-17.93-5.021-37.63,6.971Z" transform="translate(26.385 89.741)"/><path class="v" d="M353.616,163.742s-2.1-13.864,13.037-25.637c0,0-13.922,4.2-18.633,22.4Z" transform="translate(2.124 44.595)"/><path class="v" d="M196.439,73.573c-4.973-5.046-9.029-18.005-8-29.618,0,0-5.863,12.208,2.732,32.657Z" transform="translate(-102.977 -16.665)"/><path class="v" d="M180.961,81.478c-13.537.545-26.873-4.521-33.139-13.611,0,0,5.309,18.308,33.139,20.146Z" transform="translate(-128.138 -1.107)"/></g><g transform="translate(243.836 206.658)"><g transform="translate(67.19 209.279)"><g transform="translate(49.433)"><path class="w" d="M232.321,265.409c16.507,4.193,24.915,1.263,37.761-2.618,3.04,25.8,8.715,63.46,13.877,95.839,10.152-2.212,16.885-1.1,26.251.91,4.354.933,9.888,2.3,14.361,2.922s11.15,2.2,13.818,1.1c3.3-1.36,5.165-3.806,9.031-3.427a10.874,10.874,0,0,1,7.912,4.617c2.633,3.929,2.374,9.113,4.219,13.468,1.489,3.514,4.27,6.306,7.124,8.839a23.021,23.021,0,0,1,2.532,2.461c2.649,3.2,3.511,8.054,2.847,12.07-.53,3.207-2.2,10.7-6.9,9.178a6.144,6.144,0,0,1-3.034-2.484,31.774,31.774,0,0,1-1.89-3.513,31.157,31.157,0,0,0-1.964-3.3,58.152,58.152,0,0,0-10.615-11.155c-1.845-1.578-3.7-3.055-5.548-4.624-1.585-1.345-4.135-3.445-6.327-3.549a204.734,204.734,0,0,0-22.172.66c-11.424.9-23.619,2.37-31.047,3.331-14.8,1.915-19.755,1.8-25.741-8.565-6.276-10.868-13.667-29.847-18.826-47.1C232.389,311.748,228.921,290.77,232.321,265.409Z" transform="translate(-230.119 -262.791)"/><path class="x" d="M230.569,275.373c-.71,8.08,1.928,32.845,8.163,54.323l42.1-1.413-1.337-50.38Z" transform="translate(-230.457 -254.604)"/><g transform="translate(103.491 96.749)"><g transform="translate(1.164 2.695)"><path class="y" d="M293.858,324.832c.064-1.472,2.063-2.143,3.636-1.621a19.166,19.166,0,0,1,2.392.934C298.519,325.078,296.407,325.194,293.858,324.832Z" transform="translate(-293.858 -323.036)"/></g><g class="z" transform="translate(1.164 2.695)"><path d="M293.858,324.832c.064-1.472,2.063-2.143,3.636-1.621a19.166,19.166,0,0,1,2.392.934C298.519,325.078,296.407,325.194,293.858,324.832Z" transform="translate(-293.858 -323.036)"/></g><g transform="translate(0.343 12.794)"><path class="y" d="M312.979,354.558c-2.73-3.343-11.99-12.056-14.937-13.791s-5.6-.746-4.376-3.853,2.455-7.577,4.419-7.752,6.068,2.209,10.809,6.712,8.912,12.35,8.912,12.35Z" transform="translate(-293.361 -329.154)"/><path class="aa" d="M312.979,354.558c-2.73-3.343-11.99-12.056-14.937-13.791s-5.6-.746-4.376-3.853,2.455-7.577,4.419-7.752,6.068,2.209,10.809,6.712,8.912,12.35,8.912,12.35Z" transform="translate(-293.361 -329.154)"/></g><path class="p" d="M319.179,377.3c1.307.457,3.934.533,6.964-3.64,3.674-5.058,4.1-12.3,2.131-18.038-2.653-7.722-8.209-10.351-10.6-14.392-3.05-5.158-2.955-11.083-3.729-14.963-.9-4.548-3.423-4.592-4.632-4.548s-4.4.381-4.4.381Z" transform="translate(-285.502 -321.2)"/><path class="y" d="M294.317,325.895c.791-2.186,3.278-1.811,4.927-1.109s3.952,1.6,4.219,3.374c.279,1.855-3.108,2.735-3.473,4.592s2.506,4.279,5.977,7.567,11.007,12.1,10.789,13.21-3.574,4.384-3.641,6.073a32.815,32.815,0,0,1,5.162,9.145c.959,3.022,1.74,5.5,2.263,6.764s4.762,2.253,6.5,1.958c2.857-.485,8.82-5.262,8.461-15.109s-5.507-12-10.026-16.243-5.767-13.871-6.348-16.518a12,12,0,0,0-4.813-6.9,13.869,13.869,0,0,0-6.565-1.286c-4.009.114-6.357.867-9.513.368-3.549-.563-5.077,3.909-5.077,3.909S293.5,325.769,294.317,325.895Z" transform="translate(-293.153 -321.403)"/><path class="ab" d="M315.01,374.993c.776-1.624,1.6-3.405,2.275-3.354s4.411.7,5.819.008,1.936-2.313,2.6-3.846c.843-1.953,1.1-8.465.147-11.65-1.647-5.48-4.132-7.18-7.862-11.426s-4.969-6.9-5.885-12.672c-.987-6.228-1.373-8.375-3.532-10.213,0,0,1.005-.058,1.642-.013a6.849,6.849,0,0,1,1.89,2.838c.52,1.679,1.661,11.119,2.922,13.661,1.761,3.551,2.907,4.387,5.327,7.043,2.227,2.446,5.127,4.723,6.7,10.825,1.4,5.431.261,12.5-2.715,16.787-2.77,3.99-4.5,4.391-5.165,4.7a8.384,8.384,0,0,1-4.193-.467C314.256,376.784,314.456,376.157,315.01,374.993Z" transform="translate(-283.121 -321.138)"/><g transform="translate(5.346 15.62)"><path class="ab" d="M309.209,339.629c-3.113,2.986-4.566,5.767-4.467,7.147a2.869,2.869,0,0,0,1.193,1.532s.4-2.613,4.468-6.9A1.7,1.7,0,0,0,309.209,339.629Z" transform="translate(-290.962 -325.164)"/><path class="ab" d="M303.33,345.568a12.179,12.179,0,0,1,4.807-7.507,1.821,1.821,0,0,0-1.2-1.685s-4.371,3.1-4.954,7.875C301.98,344.25,302.376,345.47,303.33,345.568Z" transform="translate(-292.756 -327.281)"/><path class="ab" d="M300.735,343.283c-.393-2.245,2.834-6.807,4.873-8.275a1.529,1.529,0,0,0-1.382-1.725,13.756,13.756,0,0,0-5.221,8.453S299.4,343.324,300.735,343.283Z" transform="translate(-294.692 -329.293)"/><path class="ab" d="M298.081,341.1a12.736,12.736,0,0,1,4.767-8.791,1.886,1.886,0,0,0-1.52-1.443s-4.444,2.445-4.935,8.986A2.965,2.965,0,0,0,298.081,341.1Z" transform="translate(-296.392 -330.866)"/></g></g></g><g transform="translate(0 0.055)"><path class="x" d="M233.563,308.338c-1.619,3.939-.7,11.277,8.839,19.717s28.254,11.5,32.086,4.516-5.432-18.56-15.808-23.811S236.91,302.163,233.563,308.338Z" transform="translate(-179.422 -235.877)"/><path class="ac" d="M203.922,507.169a4.607,4.607,0,0,1,.88-.82c.312-.249.553-.362.829-.566,10.157-7.583,14.055-12.8,20.468-23.588,1.221-3.656,3.372-8.917,3.8-13.321.7-7.17,1.91-17.553,2.8-26.1,1.783-17.078,3-34.573,4.085-48.554,1.611-20.736,2.852-23.879,9.257-39.06,7.1-16.834,16.322-35.857,23.439-52.069-7.208-.492-12.223-6.231-20.734-19.9-.317-6.563,1.037-10.039,1.793-17.533a149.348,149.348,0,0,0,23.144,3.011c14.607.943,25.5.4,36.574-5.4,3.026,6.948,10.269,16.53,9.582,34.26-.7,18.114-13.991,37.155-23.94,52.565-7.4,11.466-13.408,22.2-22.751,35.839.49,11.018-.046,18.233-3.4,28.474-1.623,4.96-7.794,17.722-13.181,32.446-3.694,10.1-6.85,18.747-7.362,20.823-1.065,4.313-1.89,8.347-.259,13.024.726,2.08,2.207,5.043.617,7.852-2.225,3.937-6.228,4.709-9.376,8.059a57.316,57.316,0,0,0-7.454,9.186c-2.659,4.2-6.269,6.507-11.649,7.694s-11.829.442-16.616-3.017a2.718,2.718,0,0,1-1.04-1.342A2.425,2.425,0,0,1,203.922,507.169Z" transform="translate(-198.647 -262.537)"/><path class="ab" d="M301.56,262.824a249.307,249.307,0,0,1,1.778,33.074c0,14.9-7.184,28.108-14.367,40.55s-12.925,23.07-12.925,23.07.616-10.629-12.06-20.011c-13.611-10.076-26.452-8.04-28.865-4.222l14.488-32.946s-14.062-7.141-19.083-18.8c0,0,.551-9.3,2.022-18.53C232.547,265.008,270.534,277.622,301.56,262.824Z" transform="translate(-180.979 -262.824)"/><path class="ad" d="M249.588,292.551c-3.981,9.188-9.572,19.8-12.471,26.879l6.1-24.673c-5.9-6.254-8.6-8.8-11.538-17.159C235.366,283.4,240.632,286.645,249.588,292.551Z" transform="translate(-180.231 -253.21)"/><g transform="translate(0 206.659)"><g transform="translate(48.57 1.378)"><path class="y" d="M230.987,388.856c1.411.47,1.456,2.12.515,3.5a19.544,19.544,0,0,1-1.568,2.063Z" transform="translate(-229.934 -388.856)"/><path class="ae" d="M230.987,388.856c1.411.47,1.456,2.12.515,3.5a19.544,19.544,0,0,1-1.568,2.063Z" transform="translate(-229.934 -388.856)"/></g><g transform="translate(16.144 4.881)"><path class="y" d="M210.29,413.633c2.783-3.354,9.62-14.222,10.767-17.477s-.348-5.693,2.966-5.084,7.984.959,8.539,2.872-1.009,6.441-4.553,12.012S217.5,417.186,217.5,417.186Z" transform="translate(-210.29 -390.978)"/><path class="aa" d="M210.29,413.633c2.783-3.354,9.62-14.222,10.767-17.477s-.348-5.693,2.966-5.084,7.984.959,8.539,2.872-1.009,6.441-4.553,12.012S217.5,417.186,217.5,417.186Z" transform="translate(-210.29 -390.978)"/></g><path class="p" d="M201.177,424.8c-.2,1.385-.071,2.336,4.822,4.114,5.025,1.826,12.273,1.725,18.479.191s11.578-7.2,14.158-11.177,7.882-7.7,11.37-9.651,4.216-2.725,3.937-3.914-1.3-4.326-1.3-4.326Z" transform="translate(-200.11 -380.201)"/><path class="y" d="M249.943,389.4c1.126.784.607,2.937-1.266,4.756-.764,1.146-1.225,5.125-2.932,5.734-1.784.637-3.313-2.549-5.224-2.549s-3.752,3.313-6.337,7.392-9.848,13.253-11,13.253-5.038-2.691-6.725-2.428a97.216,97.216,0,0,1-8.059,6.888c-3.95,2.932-5.338,3.823-6.492,4.589s-1.41,3.567-.772,5.224,9.813,5.68,19.5,3.414,12.472-6.523,15.8-11.825a26.889,26.889,0,0,1,10.069-9.43c2.42-1.274,5.1-2.8,6.753-4.843a13.992,13.992,0,0,0,0-6.753c-.891-3.952-2.039-7.265-1.529-10.45s-1.467-4.35-1.467-4.35A8.85,8.85,0,0,0,249.943,389.4Z" transform="translate(-200.32 -388.021)"/><path class="ab" d="M202.843,418.921c1.758.454,3.684.923,3.764,1.6s.165,4.5,1.121,5.768,2.121,1.6,3.8,1.741,8.891.147,13.1-1.182a24.037,24.037,0,0,0,11.733-7.93c3.663-4.374,4.326-6.487,9.171-9.851s6.677-3.891,8.8-5.909a9.93,9.93,0,0,1,.406,1.585,6.05,6.05,0,0,1-2.2,1.882c-1.562.842-6.928,3.605-9.051,5.526a65.555,65.555,0,0,0-6.568,7.77,24.652,24.652,0,0,1-12.255,7.969c-5.487,1.4-13.055,1.642-18.022-.121s-5.224-2.8-5.655-3.4-.632-4.245-.352-5.046S201.58,418.6,202.843,418.921Z" transform="translate(-200.509 -378.171)"/><g transform="translate(15.654 10.312)"><path class="ab" d="M219.228,407.156c-3.562-2.5-6.6-3.4-7.948-3.037a2.9,2.9,0,0,0-1.288,1.479s2.666-.114,7.7,3.088A1.716,1.716,0,0,0,219.228,407.156Z" transform="translate(-209.993 -387.91)"/><path class="ab" d="M212.393,402.409a12.293,12.293,0,0,1,8.372,3.3A1.836,1.836,0,0,0,222.2,404.2s-3.92-3.729-8.765-3.379C213.436,400.816,212.305,401.445,212.393,402.409Z" transform="translate(-208.435 -390.023)"/><path class="ab" d="M214.454,399.346c2.149-.825,7.3,1.487,9.146,3.222a1.544,1.544,0,0,0,1.439-1.7,13.882,13.882,0,0,0-9.389-3.532S214.155,398.034,214.454,399.346Z" transform="translate(-207.116 -392.283)"/><path class="ab" d="M216.18,396.287a12.869,12.869,0,0,1,9.637,3.017,1.907,1.907,0,0,0,1.136-1.786s-3.286-3.93-9.864-3.146A3,3,0,0,0,216.18,396.287Z" transform="translate(-205.967 -394.268)"/></g></g></g></g><path class="ac" d="M200.947,248.677c2.086,2.2,6.528,6.52,20.374,18.56,10.1,8.783,21.619,20.414,25.265,31.178-.622-15.127,14.409-38.847,14.409-38.847-4.348-1.167-8.7-2.214-12.137-4.652-14.592-10.358-22.494-17.946-26.483-22.579-1.251-1.453-1.869-2.565-2.336-6.3-.411-3.27-3.99-32.441-2.8-44.606a8.856,8.856,0,0,1,2.856-5.6c4.267-3.942,5.63-7.418,8.552-11.923,2.286-3.527,4.577-4.729,4.021-5.609-.713-1.129-3.125-2.722-6.418-.994a33.5,33.5,0,0,0-6.162,5.023,44.419,44.419,0,0,1,4.746-13.413c5.211-9.6,4.543-14.765-9.178-12.3-8.6,1.547-16.622,8.8-19.5,28.936-.83,5.8-.555,14.447-.517,21.875.086,16.908.15,30.64.825,44.309C196.754,237.66,196.979,244.5,200.947,248.677Z" transform="translate(-136.54 -136.006)"/><g transform="translate(109.014 121.314)"><path class="y" d="M296.051,219.116c1.715,6.221,9.749,59.125,11.155,103.614-20.278,8.889-61.565,1.735-73.8-13.162l-1.294-22.429c-3.115-16.848-4.336-31.7-5.658-38.929-1.459-7.969-1.246-27.695,11.708-35.451,0,0,6.675-2.735,17.532-3.125,7.771-.279,21.952-.233,29.691,1.281C289.168,211.654,294.982,215.234,296.051,219.116Z" transform="translate(-225.847 -209.501)"/><path class="af" d="M296.051,219.116c1.715,6.221,9.749,59.125,11.155,103.614-20.278,8.889-61.565,1.735-73.8-13.162l-1.294-22.429c-3.115-16.848-4.336-31.7-5.658-38.929-1.459-7.969-1.246-27.695,11.708-35.451,0,0,6.675-2.735,17.532-3.125,7.771-.279,21.952-.233,29.691,1.281C289.168,211.654,294.982,215.234,296.051,219.116Z" transform="translate(-225.847 -209.501)"/></g><g transform="translate(103.646 42.416)"><path class="ad" d="M258.673,172.174a11.459,11.459,0,0,1,8.745,6.216c1.827,3.65.6,11.025-1.471,20.751s-4.127,15.612-5.441,18.327a7.367,7.367,0,0,1-4.163,3.557l-.084-11.461.16-7.993s-7.134,2.4-9.264-9.194a99.016,99.016,0,0,1-1.332-15.444Z" transform="translate(-207.482 -154.889)"/><path class="ad" d="M265.375,188.092a21.394,21.394,0,1,1-22-20.774A21.393,21.393,0,0,1,265.375,188.092Z" transform="translate(-222.596 -158.054)"/><path class="ac" d="M267.459,199.979a2.075,2.075,0,0,0,1.1.068,3.124,3.124,0,0,0,2.025-2.03c.378-.921.551-1.923,1.015-2.8.865-1.642,3.438-2.276,5.2-2.271a7.4,7.4,0,0,1,5.794,3.14c3.792,4.97-.142,13.342-4.028,15.3-5.693,2.862-8.468-2.88-8.468-2.88l.226,25.9s-1.367,4.894-11.152,8.694c-7.636,2.966-19.242-1.2-12.3-8.78l-.066-8.575a32.053,32.053,0,0,1-11.91.464c-3.867-.789-5.8-3.41-7.565-9.425a74.332,74.332,0,0,1,.089-40.514c4.1-3.382,10.741-2.58,15.526-1.6a54.366,54.366,0,0,1,10.388,3.3c.6.254,2.319.688,2.669,1.231.305.474,0,1.327.013,1.893a7.254,7.254,0,0,0,1.566,4.325c1.33,1.656,4.424,2.618,6.548,2.623a32.672,32.672,0,0,0,1.286,8.849C265.691,198.051,266.4,199.624,267.459,199.979Z" transform="translate(-221.319 -153.822)"/><path class="ad" d="M223.644,170.133a.971.971,0,0,1,.746-.614,1.252,1.252,0,0,1,.73.29,33.962,33.962,0,0,0,4.78,3,16.865,16.865,0,0,1-.284-6.385c.191-1.3.462-4.313,2.055-4.686.949-.221,1.806.55,2.539,1.193,6.618,5.809,14.917,2.758,22.667,2.758,6.48,0,14.376,2.387,17.5,8.588,1.428,2.837,1.755,5.865-.825,7.94-2.2,1.771-9.579,3.584-12.225,4.455-7.014,2.308-25.075,8.242-34.992-3.48A18.792,18.792,0,0,1,223,175.462a9.467,9.467,0,0,1,.611-5.251C223.619,170.184,223.633,170.16,223.644,170.133Z" transform="translate(-222.41 -161.703)"/><path class="w" d="M238.033,209.769s9.671-2.055,13.494-4.7c2.823-1.951,5.347-5.071,5.964-6.712,0,0-.822,5.521-3.475,8.494-4.64,5.2-15.954,6.788-15.954,6.788Z" transform="translate(-212.551 -137.852)"/><g transform="translate(5.955 31.968)"><path class="ad" d="M238.463,188.879a2.354,2.354,0,1,0,2.281-2.519A2.391,2.391,0,0,0,238.463,188.879Z" transform="translate(-218.227 -177.627)"/><path class="ad" d="M240.385,183.527l4.945,2.932a3.016,3.016,0,0,0-1.05-4.041A2.8,2.8,0,0,0,240.385,183.527Z" transform="translate(-216.976 -180.445)"/><path class="ag" d="M242.791,196.3l-9.962,3.034a5.465,5.465,0,0,0,6.687,3.532A5.081,5.081,0,0,0,242.791,196.3Z" transform="translate(-221.892 -171.159)"/><path class="w" d="M234.858,201.927a5.65,5.65,0,0,1,5.875-4.358,5.5,5.5,0,0,1,.982.165,5,5,0,0,1-3.519,4.317A5.217,5.217,0,0,1,234.858,201.927Z" transform="translate(-220.572 -170.342)"/><path class="ad" d="M226.488,185.361l5.147-2.661a2.78,2.78,0,0,0-3.816-1.314A3.045,3.045,0,0,0,226.488,185.361Z" transform="translate(-226.203 -181.069)"/><path class="ad" d="M227.514,188.13a2.354,2.354,0,1,0,2.281-2.517A2.39,2.39,0,0,0,227.514,188.13Z" transform="translate(-225.351 -178.114)"/><path class="w" d="M236.993,200.138l-7.441-1.911,8.47-11.841Z" transform="translate(-224.024 -177.61)"/></g></g><g transform="translate(151.133 227.337)"><path class="ah" d="M251.862,279.213l8.441.931-5.969-6.413c31.546,11.943,79.371,2.877,134.934,13.086,33.873,6.225,75.115,30.024,87.211,43.414v19.159c-12.263-14.836-59.814-44.423-88.26-50.131C329.4,287.455,282.629,298.1,255.979,288.795l-4.615-1.976,8.113-.961Z" transform="translate(-251.364 -273.731)"/><path class="ai" d="M251.862,279.213l8.441.931-5.969-6.413c31.546,11.943,79.371,2.877,134.934,13.086,33.873,6.225,75.115,30.024,87.211,43.414v19.159c-12.263-14.836-59.814-44.423-88.26-50.131C329.4,287.455,282.629,298.1,255.979,288.795l-4.615-1.976,8.113-.961Z" transform="translate(-251.364 -273.731)"/></g><path class="ac" d="M298.81,337.642c2.458-4.592,4.021-6,5.323-10.371a20.583,20.583,0,0,1-4.556,3.05c-2,.812-4.582.571-5.1-1.231s2.529-2.587,3.8-4.5c1.628-2.448,4.133-6.433,6.9-9.148a6.611,6.611,0,0,0,2.507-4.569c.916-12.8.416-28.24.91-42.724-9.2-5.794-28.287-15.985-35.956-20.711-5.979-3.684-10.819-13.293-12.116-22.933-.33-2.448-.654-10.908.763-14.257,4.988-.744,11.636.987,17.134,4.764,3.311,2.275,9.658,7.18,24.136,18.043,8.179,6.137,19.714,14.148,28.38,24.524,3.869,4.633-2.616,43.328-3.99,52.044-.744,4.726-2.085,11.99-3.668,18.169-2.672,10.419-9.407,18.71-17.182,19.937C293.687,349.682,295.478,343.864,298.81,337.642Z" transform="translate(-94.456 -87.813)"/><g transform="translate(0 57.337)"><path class="ah" d="M225.328,280.493c14.846,27.132,33.936,48.148,72.175,55.41l-9.339,1.776,7.766,5.168-7.965,1.081,5.446,5.366c-41.889-9.2-61.956-32.441-77.309-59.287-10.881-19.029-17.931-49.021-30.2-71.244-9.683-17.548-18.09-26.922-26.1-32.426v-15.6c12.515,7.225,24.572,20.724,34.1,38.173C207.912,234.588,217.664,266.486,225.328,280.493Z" transform="translate(-159.805 -170.742)"/><path class="ai" d="M225.328,280.493c14.846,27.132,33.936,48.148,72.175,55.41l-9.339,1.776,7.766,5.168-7.965,1.081,5.446,5.366c-41.889-9.2-61.956-32.441-77.309-59.287-10.881-19.029-17.931-49.021-30.2-71.244-9.683-17.548-18.09-26.922-26.1-32.426v-15.6c12.515,7.225,24.572,20.724,34.1,38.173C207.912,234.588,217.664,266.486,225.328,280.493Z" transform="translate(-159.805 -170.742)"/></g></g><g transform="translate(91.658 61.888)"><g transform="translate(13.686 1.207)"><path class="ah" d="M109.023,139.544s6.844-4.132,7.172-11.533l-5.061-4.072s.692,4.554-5.2,11.071Z" transform="translate(4.633 24.705)"/><path class="ah" d="M71.538,104.388s6.454-4.718,6.131-12.119l-5.4-3.612s1.088,4.477-4.213,11.485Z" transform="translate(-20.01 1.748)"/><path class="ah" d="M47.721,259.707s6.454-4.718,6.131-12.118l-5.4-3.613s1.088,4.477-4.212,11.485Z" transform="translate(-35.507 102.809)"/><path class="ah" d="M74.527,50.718s2.606-7.558-1.883-13.45l-6.494.116s3.448,3.054,3.1,11.834Z" transform="translate(-21.251 -31.689)"/><path class="ah" d="M40.523,131.665s-3.59,7.142.074,13.58l6.451.753s-3.011-3.486-1.492-12.142Z" transform="translate(-38.95 29.732)"/><path class="ah" d="M410.487,122.481s-4.525-7.44-1.111-14.75l6.938-1.38s-2.963,4.047-.556,13.311Z" transform="translate(134.509 13.261)"/><path class="ah" d="M294.736,34.127s.094,7.994-6.023,12.172l-6.127-2.154s4.236-1.812,6.667-10.257Z" transform="translate(81.077 -33.888)"/><path class="ah" d="M469.859,178.094s-6.991-3.877-7.591-11.261l4.907-4.255s-.523,4.576,5.607,10.871Z" transform="translate(169.753 49.846)"/><path class="ah" d="M448.229,217.963s6.991-3.877,7.591-11.261l-4.907-4.255s.525,4.576-5.607,10.871Z" transform="translate(158.717 75.788)"/><path class="ah" d="M443.458,207.489s3-7.411-1.179-13.531l-6.49-.223s3.283,3.229,2.474,11.979Z" transform="translate(152.524 70.12)"/></g><path class="aj" d="M134.148,33.157s.441,7.983-5.488,12.423l-6.215-1.887S126.6,41.7,128.66,33.157Z" transform="translate(14.608 -33.157)"/><path class="aj" d="M32.27,67.1s-3.628,7.123,0,13.582l6.448.784s-2.993-3.5-1.428-12.149Z" transform="translate(-30.658 -11.074)"/><path class="aj" d="M97.183,84.205s5.866-5.431,4.691-12.745L96.1,68.5s1.6,4.32-2.857,11.893Z" transform="translate(10.06 -10.163)"/><path class="aj" d="M76.479,155.369s-3.493,7.192.259,13.578l6.462.664s-3.059-3.445-1.661-12.121Z" transform="translate(-1.807 46.362)"/><path class="aj" d="M52.73,203.056s2.321-7.651-2.389-13.37l-6.485.361s4.5,3.148,4.478,11.936Z" transform="translate(-22.071 68.691)"/><path class="aj" d="M54.849,216.49S61.718,212.4,62.092,205l-5.036-4.1a20.589,20.589,0,0,1-4.734,11.837Z" transform="translate(-16.563 75.987)"/><path class="aj" d="M306.748,57.8s-3.462,7.207.32,13.577l6.464.634s-3.073-3.43-1.713-12.113Z" transform="translate(105.002 -17.125)"/><path class="aj" d="M461.353,127.576s-6.131-5.13-5.323-12.494l5.624-3.25s-1.38,4.394,3.448,11.736Z" transform="translate(179.333 18.034)"/><path class="aj" d="M462.635,254.6s-1.758,9.859-10.265,13.57l-7.037-4.089s5.637-1.238,10.609-11.059Z" transform="translate(172.42 109.903)"/><path class="aj" d="M427.3,148.577s.365,7.986-5.607,12.368L415.5,159s5.133-1.944,7.278-10.467Z" transform="translate(153.006 41.914)"/><path class="ak" d="M134.148,33.157s.441,7.983-5.488,12.423l-6.215-1.887S126.6,41.7,128.66,33.157Z" transform="translate(14.608 -33.157)"/><path class="ak" d="M32.27,67.1s-3.628,7.123,0,13.582l6.448.784s-2.993-3.5-1.428-12.149Z" transform="translate(-30.658 -11.074)"/><path class="ak" d="M97.183,84.205s5.866-5.431,4.691-12.745L96.1,68.5s1.6,4.32-2.857,11.893Z" transform="translate(10.06 -10.163)"/><path class="ak" d="M76.479,155.369s-3.493,7.192.259,13.578l6.462.664s-3.059-3.445-1.661-12.121Z" transform="translate(-1.807 46.362)"/><path class="ak" d="M52.73,203.056s2.321-7.651-2.389-13.37l-6.485.361s4.5,3.148,4.478,11.936Z" transform="translate(-22.071 68.691)"/><path class="ak" d="M54.849,216.49S61.718,212.4,62.092,205l-5.036-4.1a20.589,20.589,0,0,1-4.734,11.837Z" transform="translate(-16.563 75.987)"/><path class="ak" d="M306.748,57.8s-3.462,7.207.32,13.577l6.464.634s-3.073-3.43-1.713-12.113Z" transform="translate(105.002 -17.125)"/><path class="ak" d="M461.353,127.576s-6.131-5.13-5.323-12.494l5.624-3.25s-1.38,4.394,3.448,11.736Z" transform="translate(179.333 18.034)"/><path class="ak" d="M462.635,254.6s-1.758,9.859-10.265,13.57l-7.037-4.089s5.637-1.238,10.609-11.059Z" transform="translate(172.42 109.903)"/><path class="ak" d="M427.3,148.577s.365,7.986-5.607,12.368L415.5,159s5.133-1.944,7.278-10.467Z" transform="translate(153.006 41.914)"/></g></g><rect class="al" width="17" height="3" transform="translate(1520 506)"/><rect class="a" width="17" height="3" transform="translate(1520 509)"/><rect class="ah" width="17" height="3" transform="translate(1520 512)"/><circle class="am" cx="1.5" cy="1.5" r="1.5" transform="translate(1527 509)"/></g></g></svg>